<?xml version="1.0" encoding="UTF-8" standalone="no"?>
<!-- Created with Inkscape (http://www.inkscape.org/) -->

<svg
   xmlns:dc="http://purl.org/dc/elements/1.1/"
   xmlns:cc="http://creativecommons.org/ns#"
   xmlns:rdf="http://www.w3.org/1999/02/22-rdf-syntax-ns#"
   xmlns:svg="http://www.w3.org/2000/svg"
   xmlns="http://www.w3.org/2000/svg"
   xmlns:sodipodi="http://sodipodi.sourceforge.net/DTD/sodipodi-0.dtd"
   xmlns:inkscape="http://www.inkscape.org/namespaces/inkscape"
   width="120"
   height="42"
   id="svg2759"
   sodipodi:version="0.32"
   inkscape:version="0.91 r13725"
   version="1.0"
   sodipodi:docname="by-sa.svg"
   inkscape:output_extension="org.inkscape.output.svg.inkscape">
  <defs
     id="defs2761" />
  <sodipodi:namedview
     id="base"
     pagecolor="#ffffff"
     bordercolor="#8b8b8b"
     borderopacity="1"
     gridtolerance="10000"
     guidetolerance="10"
     objecttolerance="10"
     inkscape:pageopacity="0.0"
     inkscape:pageshadow="2"
     inkscape:zoom="8"
     inkscape:cx="58.905517"
     inkscape:cy="13.099779"
     inkscape:document-units="px"
     inkscape:current-layer="layer1"
     width="120px"
     height="42px"
     inkscape:showpageshadow="false"
     inkscape:window-width="1297"
     inkscape:window-height="1062"
     inkscape:window-x="621"
     inkscape:window-y="16"
     showgrid="false"
     inkscape:window-maximized="0" />
  <metadata
     id="metadata2764">
    <rdf:RDF>
      <cc:Work
         rdf:about="">
        <dc:format>image/svg+xml</dc:format>
        <dc:type
           rdf:resource="http://purl.org/dc/dcmitype/StillImage" />
      </cc:Work>
    </rdf:RDF>
  </metadata>
  <g
     inkscape:label="Layer 1"
     inkscape:groupmode="layer"
     id="layer1">
    <path
       inkscape:connector-curvature="0"
       style="fill:#f1e9d2;fill-opacity:1"
       d="M 3.4078539,0.47646618 116.76242,0.67830031 c 1.58383,0 2.99881,-0.23532079 2.99881,3.16004759 l -0.13878,37.3290691 -119.07511437,0 0,-37.4678351 c 0,-1.6739056 0.1620757,-3.22311572 2.86051827,-3.22311572 z"
       nodetypes="ccccccc"
       id="path3817_2_" />
    <path
       id="path5906_2_"
       cx="296.35416"
       ry="22.939548"
       cy="264.3577"
       type="arc"
       rx="22.939548"
       d="m 34.522229,19.575504 c 0.0052,7.529196 -6.096613,13.636272 -13.626652,13.641589 -7.530013,0.0043 -13.6387529,-6.09593 -13.6431164,-13.625073 0,-0.0058 0,-0.0107 0,-0.01652 -0.00434,-7.53015 6.0965864,-13.6372254 13.6266254,-13.6416144 7.530994,-0.00486 13.63878,6.0959554 13.643143,13.6250994 0,0.0049 0,0.01069 0,0.01651 z"
       style="fill:#f1e9d2;fill-opacity:1"
       inkscape:connector-curvature="0" />
    <path
       inkscape:connector-curvature="0"
       d="m 31.971295,8.4704702 c 3.023565,3.0237038 4.535587,6.7257018 4.535587,11.1050228 0,4.379806 -1.485841,8.042034 -4.457469,10.987603 -3.153603,3.102325 -6.880765,4.652984 -11.181513,4.652984 -4.248776,0 -7.911415,-1.537553 -10.9868734,-4.614151 -3.075988,-3.075617 -4.613713,-6.750925 -4.613713,-11.026436 0,-4.275034 1.537725,-7.976546 4.613713,-11.1050228 C 12.878385,5.4462892 16.54098,3.9349144 20.8679,3.9349144 c 4.379351,0 8.07983,1.5113748 11.103395,4.5355558 z M 11.916631,10.504381 c -2.5562818,2.581697 -3.8339327,5.605878 -3.8339327,9.07498 0,3.468149 1.2650462,6.466603 3.7946187,8.995467 2.530066,2.529757 5.541964,3.794644 9.036708,3.794644 3.494717,0 6.532371,-1.277508 9.114357,-3.833027 2.451446,-2.373053 3.677654,-5.35795 3.677654,-8.957084 0,-3.571967 -1.246117,-6.603408 -3.736878,-9.09441 -2.490257,-2.490004 -5.50847,-3.735453 -9.055133,-3.735453 -3.546629,0 -6.546425,1.251807 -8.997394,3.754883 z m 6.726959,7.549042 c -0.390649,-0.851461 -0.975348,-1.277005 -1.755154,-1.277005 -1.378566,0 -2.067597,0.927696 -2.067597,2.783037 0,1.855869 0.689031,2.783565 2.067597,2.783565 0.910329,0 1.560575,-0.452173 1.950695,-1.357577 l 1.910877,1.01748 c -0.910806,1.618108 -2.277219,2.427847 -4.099325,2.427847 -1.40525,0 -2.531021,-0.430835 -3.376331,-1.292036 -0.846733,-0.861679 -1.268915,-2.04942 -1.268915,-3.563233 0,-1.488085 0.435732,-2.669052 1.307726,-3.543854 0.871995,-0.874273 1.957973,-1.311944 3.259871,-1.311944 1.925936,0 3.305006,0.758867 4.138639,2.275056 l -2.068083,1.058664 z m 8.990115,0 c -0.391126,-0.851461 -0.9642,-1.277005 -1.719708,-1.277005 -1.406257,0 -2.109853,0.927696 -2.109853,2.783037 0,1.855869 0.703596,2.783565 2.109853,2.783565 0.91176,0 1.550356,-0.452173 1.914763,-1.357577 l 1.953601,1.01748 c -0.909349,1.618108 -2.273861,2.427847 -4.09255,2.427847 -1.40335,0 -2.526683,-0.430835 -3.371482,-1.292036 -0.843349,-0.861679 -1.266,-2.04942 -1.266,-3.563233 0,-1.488085 0.428957,-2.669052 1.286386,-3.543854 0.856926,-0.874273 1.947754,-1.311944 3.273456,-1.311944 1.922527,0 3.299662,0.758867 4.130407,2.275056 l -2.108873,1.058664 z"
       id="path5708_2_"
       style="fill:#0e162d;fill-opacity:1" />
    <path
       inkscape:connector-curvature="0"
       id="path294"
       d="m 117.75332,1.702416e-6 -115.5066392,0 C 1.0078536,1.702416e-6 9.7349798e-7,1.0082284 9.7349798e-7,2.2469168 l 0,39.2455792 c 0,0.279956 0.22709876650202,0.507507 0.50707660650202,0.507507 l 118.98536242,0 c 0.27999,0 0.50756,-0.227551 0.50756,-0.507507 L 120,2.2469267 C 120,1.0082284 118.99215,1.702416e-6 117.75332,1.702416e-6 Z M 2.2466808,1.0150251 l 115.5066392,0 c 0.67934,0 1.23156,0.5526292 1.23156,1.2319016 0,0 0,15.8186503 0,27.2448843 l -82.557092,0 c -3.025983,5.470518 -8.855709,9.185133 -15.546258,9.185133 -6.693461,0 -12.5217365,-3.711217 -15.5462583,-9.185133 l -4.3210976,0 c 0,-11.426224 0,-27.2448843 0,-27.2448843 -1.99e-5,-0.6792724 0.5531681,-1.2319016 1.2325067,-1.2319016 z"
       style="fill:#0e162d;fill-opacity:1" />
    <path
       d="m 86.263863,37.732272 c 0.0796,0.154774 0.186333,0.279956 0.319291,0.376024 0.132958,0.09559 0.288237,0.166907 0.466809,0.213003 0.179536,0.0466 0.364906,0.06985 0.55609,0.06985 0.129072,0 0.267854,-0.01063 0.416344,-0.03249 0.147517,-0.02136 0.286299,-0.06359 0.416345,-0.125182 0.129072,-0.06161 0.237772,-0.147014 0.323177,-0.255214 0.08735,-0.108201 0.130046,-0.245506 0.130046,-0.4129 0,-0.179039 -0.05724,-0.324105 -0.171775,-0.435704 -0.113549,-0.111589 -0.263968,-0.203782 -0.449338,-0.278496 -0.184396,-0.07373 -0.394988,-0.138765 -0.628874,-0.19456 -0.23486,-0.05584 -0.472632,-0.117412 -0.713306,-0.185826 -0.247471,-0.06161 -0.488155,-0.137305 -0.723015,-0.227073 -0.233886,-0.08923 -0.444488,-0.20572 -0.629848,-0.347884 -0.18536,-0.142164 -0.334815,-0.319743 -0.449338,-0.533223 -0.11355,-0.21348 -0.170811,-0.471605 -0.170811,-0.774367 0,-0.3406 0.07274,-0.6356 0.217389,-0.885955 0.145569,-0.250355 0.335789,-0.458986 0.570649,-0.62638 0.233886,-0.166906 0.499802,-0.290628 0.796774,-0.371175 0.295997,-0.08009 0.592969,-0.120323 0.888966,-0.120323 0.346462,0 0.678375,0.03885 0.996693,0.116448 0.317354,0.07711 0.60073,0.202808 0.847237,0.376024 0.247472,0.173217 0.443515,0.394457 0.589084,0.663742 0.144605,0.269284 0.217389,0.595814 0.217389,0.979112 l -1.413037,0 c -0.01262,-0.197959 -0.05436,-0.361954 -0.124222,-0.491499 -0.07086,-0.130032 -0.164988,-0.231922 -0.281439,-0.306636 -0.117425,-0.07373 -0.251357,-0.126634 -0.401785,-0.157199 -0.151393,-0.031 -0.315406,-0.0466 -0.493979,-0.0466 -0.116461,0 -0.233886,0.01262 -0.350347,0.03686 -0.117426,0.02524 -0.223213,0.06837 -0.318318,0.130032 -0.0961,0.0621 -0.174687,0.139253 -0.235824,0.231922 -0.06112,0.09311 -0.09222,0.210569 -0.09222,0.352733 0,0.130031 0.02425,0.235321 0.07374,0.315371 0.04949,0.08059 0.147517,0.154774 0.292122,0.222701 0.144605,0.06797 0.345498,0.136341 0.601704,0.204268 0.256207,0.06797 0.591032,0.154774 1.005428,0.259577 0.123249,0.02474 0.29406,0.06985 0.513387,0.13488 0.219328,0.06499 0.436717,0.168358 0.653143,0.310522 0.216416,0.142641 0.402749,0.33284 0.560939,0.570585 0.157217,0.238232 0.235825,0.542931 0.235825,0.914096 0,0.303248 -0.05923,0.584656 -0.176625,0.844232 -0.117425,0.260063 -0.292122,0.484215 -0.52406,0.672475 -0.231949,0.189225 -0.519211,0.335751 -0.861797,0.441041 -0.34355,0.105289 -0.74145,0.157685 -1.191762,0.157685 -0.364906,0 -0.719129,-0.04511 -1.062689,-0.134881 -0.342586,-0.08973 -0.646345,-0.230948 -0.909349,-0.423084 -0.26203,-0.192136 -0.470685,-0.437155 -0.625963,-0.734093 -0.154304,-0.297425 -0.228063,-0.649671 -0.222239,-1.058199 l 1.413037,0 c -3e-5,0.222702 0.03975,0.411439 0.120307,0.565726 z"
       id="path298"
       style="fill:#f1e9d2;fill-opacity:1"
       inkscape:connector-curvature="0" />
    <path
       d="m 94.469351,32.74743 2.477654,6.621873 -1.512991,0 -0.500776,-1.474983 -2.477655,0 -0.51921,1.474983 -1.465439,0 2.504834,-6.621873 1.493583,0 z m 0.08348,4.060074 -0.834616,-2.427892 -0.01848,0 -0.863734,2.427892 1.716786,0 z"
       id="path300"
       style="fill:#f1e9d2;fill-opacity:1"
       inkscape:connector-curvature="0" />
    <path
       d="m 59.996599,32.74743 c 0.315406,0 0.603642,0.02812 0.863735,0.08347 0.260092,0.05575 0.483305,0.147014 0.669639,0.273647 0.18536,0.126633 0.329965,0.295 0.431867,0.505082 0.101902,0.210082 0.15334,0.469668 0.15334,0.778729 0,0.333813 -0.07573,0.611335 -0.228062,0.834046 -0.151393,0.222701 -0.376554,0.404652 -0.673515,0.546807 0.409547,0.117412 0.715253,0.323141 0.91711,0.617158 0.201857,0.294016 0.302795,0.64821 0.302795,1.06257 0,0.333813 -0.06499,0.622981 -0.195069,0.867523 -0.130046,0.244055 -0.305707,0.443465 -0.525034,0.598239 -0.220301,0.154774 -0.471658,0.269284 -0.753097,0.343024 -0.282413,0.07472 -0.571623,0.11159 -0.869558,0.11159 l -3.216203,0 0,-6.621873 3.122052,0 0,1e-5 z m -0.186334,2.678247 c 0.260092,0 0.473596,-0.06161 0.641495,-0.184862 0.166926,-0.123722 0.250384,-0.323618 0.250384,-0.60115 0,-0.154287 -0.02812,-0.280921 -0.08348,-0.379423 -0.05625,-0.09897 -0.130046,-0.175641 -0.223213,-0.231435 -0.09312,-0.05535 -0.199919,-0.0941 -0.320266,-0.115475 -0.121311,-0.02186 -0.246507,-0.03249 -0.376553,-0.03249 l -1.364511,0 0,1.544848 1.476122,0 z m 0.08537,2.810226 c 0.142657,0 0.278527,-0.01361 0.408573,-0.04173 0.130046,-0.02762 0.245533,-0.07423 0.344524,-0.138766 0.09898,-0.06499 0.177598,-0.153323 0.236798,-0.264425 0.05923,-0.111102 0.08835,-0.253266 0.08835,-0.426483 0,-0.339636 -0.0961,-0.582231 -0.288236,-0.727296 -0.192158,-0.145066 -0.446426,-0.217852 -0.761832,-0.217852 l -1.589662,0 0,1.816546 1.561518,0 z"
       id="path304"
       style="fill:#f1e9d2;fill-opacity:1"
       inkscape:connector-curvature="0" />
    <path
       d="m 62.690669,32.74743 1.633328,0 1.550845,2.615179 1.541135,-2.615179 1.623629,0 -2.458246,4.080454 0,2.541429 -1.459615,0 0,-2.578304 -2.431076,-4.043579 z"
       id="path306"
       style="fill:#f1e9d2;fill-opacity:1"
       inkscape:connector-curvature="0" />
    <path
       id="path6318_1_"
       cx="475.97119"
       ry="29.209877"
       cy="252.08646"
       type="arc"
       rx="29.209877"
       d="m 102.40309,14.980755 c 0.004,5.84509 -4.731135,10.587333 -10.577357,10.591692 -5.845253,0.0043 -10.588027,-4.730604 -10.592878,-10.576153 0,-0.005 0,-0.01068 0,-0.01553 -0.0037,-5.8455492 4.732097,-10.5868421 10.577357,-10.5916924 5.846222,-0.00435 10.588988,4.7310955 10.592878,10.5761914 0,0.0056 0,0.01018 0,0.01553 z"
       style="fill:#f1e9d2;fill-opacity:1"
       inkscape:connector-curvature="0" />
    <path
       inkscape:connector-curvature="0"
       d="m 91.742269,3.3861664 c -3.212333,0 -5.930662,1.1207818 -8.155986,3.3618859 -2.283572,2.3192307 -3.42487,5.0634507 -3.42487,8.2327027 0,3.169252 1.141298,5.894598 3.42487,8.17448 2.282584,2.280416 5.001882,3.420599 8.155986,3.420599 3.192905,0 5.959761,-1.14989 8.302521,-3.449713 2.20497,-2.183335 3.3084,-4.898944 3.3084,-8.145366 0,-3.245932 -1.12284,-5.9911391 -3.367595,-8.2327027 C 97.740868,4.5069482 94.993403,3.3861664 91.742269,3.3861664 Z m 0.02913,2.0867947 c 2.631957,0 4.867002,0.9271979 6.706084,2.7825812 1.856537,1.8359757 2.785307,4.0775337 2.785307,6.7252127 0,2.666627 -0.90839,4.879573 -2.72806,6.638373 -1.915733,1.893707 -4.170187,2.840312 -6.763325,2.840312 -2.593157,0 -4.828183,-0.937395 -6.705115,-2.811198 -1.876914,-1.875244 -2.815383,-4.096941 -2.815383,-6.667481 0,-2.570049 0.948171,-4.812097 2.844494,-6.7252125 1.818697,-1.8553895 4.044022,-2.7825874 6.675998,-2.7825874 z"
       id="path6322_1_"
       style="fill:#0e162d;fill-opacity:1" />
    <path
       inkscape:connector-curvature="0"
       d="m 86.602551,13.344201 c 0.461961,-2.917446 2.516487,-4.4768303 5.090228,-4.4768303 3.702406,0 5.957823,2.6859973 5.957823,6.2676993 0,3.49482 -2.40003,6.209931 -6.016052,6.209931 -2.48737,0 -4.713675,-1.53076 -5.119346,-4.534102 l 2.921189,0 c 0.08734,1.559421 1.09956,2.108171 2.54558,2.108171 1.647905,0 2.719316,-1.530798 2.719316,-3.870877 0,-2.454548 -0.925842,-3.754394 -2.662056,-3.754394 -1.272315,0 -2.370893,0.462406 -2.60284,2.050402 l 0.850135,-0.0043 -2.300062,2.298836 -2.299093,-2.298836 0.915178,0.0043 z"
       id="path6324_1_"
       style="fill:#0e162d;fill-opacity:1" />
    <ellipse
       cx="63.3596"
       cy="15.217025"
       id="circle315"
       style="fill:#f1e9d2;fill-opacity:1"
       rx="10.739192"
       ry="10.737989" />
    <path
       inkscape:connector-curvature="0"
       id="path319"
       d="m 66.467831,12.109871 c 0,-0.413864 -0.335789,-0.748651 -0.749222,-0.748651 l -4.742778,0 c -0.413433,0 -0.749221,0.334777 -0.749221,0.748651 l 0,4.742734 1.322771,0 0,5.616557 3.594694,0 0,-5.616557 1.323746,0 0,-4.742734 1e-5,0 z"
       style="fill:#0e162d;fill-opacity:1" />
    <ellipse
       id="circle321"
       cy="9.1143026"
       cx="63.347225"
       rx="1.6221682"
       ry="1.6219865"
       style="fill:#0e162d;fill-opacity:1" />
    <path
       d="m 63.332184,3.3861488 c -3.211353,0 -5.931141,1.1203026 -8.156475,3.3623686 -2.283559,2.3182406 -3.424856,5.0629546 -3.424856,8.2317366 0,3.168781 1.141297,5.894576 3.424856,8.174967 2.283559,2.279905 5.002871,3.420101 8.156475,3.420101 3.192908,0 5.960746,-1.149417 8.301567,-3.449702 2.206889,-2.182873 3.309369,-4.898482 3.309369,-8.145376 0,-3.246895 -1.121889,-5.9906444 -3.366631,-8.2317366 -2.244741,-2.242056 -4.993171,-3.3623586 -8.244305,-3.3623586 z m 0.02912,2.0863182 c 2.631968,0 4.867001,0.9276798 6.705108,2.7830494 1.858489,1.8354766 2.787247,4.0775426 2.787247,6.7247376 0,2.666601 -0.909349,4.880039 -2.729012,6.638367 -1.91574,1.893695 -4.170192,2.840305 -6.763333,2.840305 -2.593142,0 -4.828184,-0.936902 -6.704621,-2.811677 -1.877898,-1.874289 -2.815878,-4.096462 -2.815878,-6.666995 0,-2.570057 0.948166,-4.811636 2.844499,-6.7247376 1.819185,-1.8553696 4.044995,-2.7830494 6.67599,-2.7830494 z"
       id="path323"
       style="clip-rule:evenodd;fill-rule:evenodd;fill:#0e162d;fill-opacity:1"
       inkscape:connector-curvature="0" />
  </g>
</svg>
